<svg width="40" height="40" viewBox="0 0 40 40" fill="none" xmlns="http://www.w3.org/2000/svg">
<path d="M36.6516 19.6958C36.7091 16.145 35.9091 11.9225 34.2424 6.96834L32.9358 3.08334L31.1608 6.7775C31.0658 6.975 30.9574 7.16834 30.8441 7.35917C27.9283 4.85584 24.1449 3.33334 19.9999 3.33334C10.7949 3.33334 3.33325 10.795 3.33325 20C3.33325 29.205 10.7949 36.6667 19.9999 36.6667C29.2049 36.6667 36.6666 29.205 36.6666 20C36.6666 19.8975 36.6533 19.7983 36.6516 19.6958Z" fill="#8BC34A"/>
<path d="M32.8209 27.1317C30.2184 30.7167 25.6118 30.9092 21.2759 30.8333H15.6251H14.0101C17.7001 29.5058 19.8959 29.19 22.1384 28C26.3618 25.7792 30.5368 20.92 31.4059 15.865C29.7976 20.7283 24.9234 24.9067 20.4818 26.6058C17.4384 27.7667 11.9418 28.8933 11.9418 28.8933L11.7193 28.7725C7.9776 26.89 7.86427 18.5117 14.6668 15.8067C17.6451 14.6208 20.4943 15.2725 23.7118 14.4792C27.1468 13.6358 31.1201 10.9725 32.7368 7.5C34.5468 13.0558 36.7251 21.755 32.8209 27.1317ZM13.0568 32.0375C12.8218 32.3292 12.4626 32.5 12.0876 32.5C11.4018 32.5 10.8418 31.9358 10.8418 31.25C10.8418 30.5642 11.4059 30 12.0876 30C12.3718 30 12.6518 30.0983 12.8718 30.28C13.4051 30.7125 13.4884 31.5042 13.0568 32.0375Z" fill="white"/>
</svg>
