<svg width="40" height="40" viewBox="0 0 40 40" fill="none" xmlns="http://www.w3.org/2000/svg">
<path d="M19.9668 23.32C21.8151 23.32 23.3135 21.8216 23.3135 19.9733C23.3135 18.125 21.8151 16.6266 19.9668 16.6266C18.1185 16.6266 16.6201 18.125 16.6201 19.9733C16.6201 21.8216 18.1185 23.32 19.9668 23.32Z" fill="#36A2EB"/>
<path d="M19.9667 27.64C15.2667 27.64 11.1601 27.0867 8.08673 26.0334C6.0934 25.3534 4.40006 24.4467 3.1934 23.4134C1.9134 22.32 1.2334 21.1267 1.2334 19.9734C1.2334 17.76 3.66007 15.5934 7.7334 14.18C11.0667 13.02 15.4134 12.3734 19.9601 12.3734C24.4267 12.3734 28.7134 13 32.0267 14.1467C33.9667 14.8134 35.6001 15.68 36.7601 16.64C38.0201 17.6934 38.6867 18.8467 38.6867 19.9734C38.6867 22.2734 35.9734 24.6 31.6001 26.0467C28.5067 27.0734 24.3734 27.64 19.9667 27.64ZM19.9667 13.9734C15.6534 13.9734 11.3867 14.6 8.26673 15.6867C4.52006 16.9934 2.84006 18.78 2.84006 19.9734C2.84006 21.2134 4.64673 23.1667 8.60673 24.52C11.5134 25.5134 15.4467 26.04 19.9667 26.04C24.2067 26.04 28.1601 25.5067 31.1001 24.5267C35.2134 23.16 37.0934 21.2067 37.0934 19.9734C37.0934 19.34 36.6134 18.5934 35.7401 17.8667C34.7334 17.0267 33.2667 16.26 31.5134 15.6534C28.3601 14.5734 24.2601 13.9734 19.9667 13.9734Z" fill="#A8DDEF"/>
<path d="M12.3733 36.6533C11.6933 36.6533 11.0933 36.5066 10.5867 36.2133C8.67334 35.1066 8.00668 31.92 8.81334 27.6866C9.47334 24.2133 11.0867 20.1333 13.36 16.1933C15.5933 12.3266 18.2733 8.92664 20.92 6.62664C22.4667 5.27998 24.0333 4.29331 25.4467 3.77331C26.9867 3.20664 28.32 3.20664 29.2933 3.76664C31.2867 4.91331 31.9467 8.43331 31.0133 12.94C30.3533 16.14 28.78 20 26.58 23.82C24.2333 27.8866 21.7 31.1666 19.2533 33.3066C17.6667 34.6933 16.0333 35.7066 14.54 36.2333C13.76 36.5133 13.0267 36.6533 12.3733 36.6533ZM14.0467 16.5933L14.74 16.9933C12.5867 20.7266 10.9933 24.7333 10.38 27.9866C9.64001 31.8866 10.3533 34.2333 11.38 34.8266C11.6333 34.9733 11.9667 35.0533 12.3733 35.0533C13.7 35.0533 15.7867 34.2133 18.2 32.1066C20.5133 30.0866 22.9333 26.94 25.1933 23.0266C27.3133 19.3533 28.82 15.66 29.4467 12.6266C30.32 8.37997 29.5667 5.77998 28.4933 5.15998C27.9467 4.84664 27.06 4.88664 25.9933 5.27998C24.76 5.73331 23.3667 6.61998 21.9667 7.83998C19.4533 10.0266 16.8867 13.28 14.74 17L14.0467 16.5933Z" fill="#A8DDEF"/>
<path d="M27.56 36.6733C25.7467 36.6733 23.4467 35.58 21.0467 33.5133C18.3667 31.2067 15.64 27.7733 13.36 23.8333C11.12 19.9667 9.52 15.9467 8.84667 12.5C8.45333 10.4867 8.38 8.63999 8.63333 7.15333C8.91333 5.53333 9.57333 4.37999 10.5533 3.81332C12.54 2.65999 15.92 3.84666 19.36 6.90666C21.8 9.07333 24.36 12.3667 26.5667 16.18C28.92 20.2467 30.5 24.08 31.1267 27.2667C31.5333 29.3333 31.6 31.2533 31.3133 32.8133C31.0067 34.4733 30.3133 35.6533 29.3133 36.2333C28.8133 36.5267 28.22 36.6733 27.56 36.6733ZM14.7467 23.0333C16.9067 26.7667 19.5867 30.1467 22.0933 32.3C25.1 34.8867 27.4867 35.4467 28.52 34.8467C29.5933 34.2267 30.38 31.6867 29.5667 27.58C28.9667 24.5667 27.4533 20.9 25.1867 16.9867C23.06 13.3133 20.6133 10.16 18.3 8.10666C15.06 5.22666 12.4333 4.57999 11.36 5.19999C10.8133 5.51333 10.4067 6.30666 10.2133 7.42666C9.99333 8.71999 10.06 10.3733 10.42 12.1933C11.06 15.4667 12.5933 19.3133 14.7467 23.0333Z" fill="#A8DDEF"/>
</svg>
