<svg width="40" height="40" viewBox="0 0 40 40" fill="none" xmlns="http://www.w3.org/2000/svg">
<path d="M39.5 39.5H0.5V20V0.5H39.5V39.5Z" stroke="#36A2EB"/>
<path d="M8.84078 20.134L8.82812 21.772H14.0344V36.5657H17.7172V21.772H22.9234V20.1657C22.9234 19.2766 22.9044 18.5338 22.8791 18.5148C22.86 18.4895 19.6917 18.4767 15.8505 18.4831L8.86 18.5021L8.84094 20.1338L8.84078 20.134Z" fill="#36A2EB"/>
<path d="M32.2775 18.4532C33.2932 18.7073 34.0679 19.1579 34.779 19.8945C35.1473 20.2882 35.6932 21.0057 35.7378 21.1771C35.7503 21.2279 34.0107 22.3962 32.9568 23.0501C32.9187 23.0756 32.7662 22.9104 32.5948 22.6563C32.0806 21.9073 31.5409 21.5834 30.7154 21.5263C29.5029 21.4437 28.7218 22.0787 28.7282 23.1388C28.7282 23.4501 28.7726 23.6341 28.8996 23.8882C29.1664 24.4406 29.6615 24.7707 31.2171 25.4437C34.0806 26.6756 35.3059 27.4882 36.0679 28.6437C36.9187 29.9327 37.1092 31.9898 36.5314 33.5199C35.8965 35.1834 34.322 36.3137 32.1059 36.6882C31.4203 36.8088 29.795 36.7898 29.0584 36.6565C27.4521 36.3707 25.9282 35.5771 24.9885 34.5359C24.6203 34.1295 23.9028 33.0691 23.9473 32.9929C23.9664 32.9676 24.1314 32.866 24.3154 32.7581C24.4932 32.6565 25.1664 32.269 25.8012 31.9009L26.9504 31.2341L27.1917 31.5898C27.5282 32.104 28.2646 32.8088 28.7092 33.0437C29.9853 33.7168 31.7378 33.6215 32.6012 32.8468C32.9695 32.5104 33.1218 32.1612 33.1218 31.6468C33.1218 31.1834 33.0646 30.9802 32.8234 30.6312C32.5125 30.1866 31.8775 29.812 30.0742 29.0312C28.0107 28.1421 27.1218 27.5898 26.3092 26.7135C25.8393 26.2057 25.3948 25.3929 25.2107 24.7135C25.0584 24.1485 25.0201 22.7326 25.1409 22.1612C25.5664 20.1674 27.071 18.7771 29.2425 18.3643C29.9471 18.231 31.5853 18.2818 32.2775 18.4534V18.4532Z" fill="#36A2EB"/>
</svg>
